<svg xmlns="http://www.w3.org/2000/svg" viewBox="0 0 414 414"><defs><style>.cls-1{fill:#902230;}.cls-2{fill:#fff;}</style></defs><title>logo</title><g id="Layer_2" data-name="Layer 2"><g id="Layer_1-2" data-name="Layer 1"><rect class="cls-1" width="414" height="414" rx="12" ry="12"/><path class="cls-2" d="M85,334a11.46,11.46,0,0,1,4.83,3.84,10.17,10.17,0,0,1,2,4.5,55.39,55.39,0,0,1,.36,7.54v22.93H81.7V349a10.54,10.54,0,0,0-1.07-5.09q-1.39-2.73-5.26-2.72a7.21,7.21,0,0,0-6.09,2.71q-2.08,2.71-2.08,7.72v21.15H57V320.19H67.2v18.62a12.48,12.48,0,0,1,5.11-4.74,14.42,14.42,0,0,1,6.12-1.34A16.52,16.52,0,0,1,85,334Z"/><path class="cls-2" d="M103.25,380.26l1.29.07a16.08,16.08,0,0,0,2.86-.11,5.14,5.14,0,0,0,2.29-.82,5.51,5.51,0,0,0,1.66-2.54,6.12,6.12,0,0,0,.66-2.36L97.69,333.76H109l8.52,28.78,8.05-28.78h10.85l-13.38,38.38q-3.88,11.1-6.14,13.77t-9,2.67l-2.19,0c-.55,0-1.38-.05-2.47-.13Z"/><path class="cls-2" d="M175.31,337.95q4.77,5,4.77,14.82,0,10.31-4.67,15.72a15.15,15.15,0,0,1-12,5.41,12.6,12.6,0,0,1-7.78-2.33,15,15,0,0,1-3.31-3.76v20.33H142.2V333.76H152v5.76a16.37,16.37,0,0,1,3.53-4,13,13,0,0,1,8.14-2.61A15.43,15.43,0,0,1,175.31,337.95Zm-7.83,7.34q-2.08-3.47-6.75-3.47a7.67,7.67,0,0,0-7.7,5.26,19.74,19.74,0,0,0-1.09,7.09q0,6.8,3.65,9.56a8.38,8.38,0,0,0,5.14,1.61,7.47,7.47,0,0,0,6.57-3.29,17.25,17.25,0,0,0,.18-16.75Z"/><path class="cls-2" d="M212.7,334.55a15.89,15.89,0,0,1,6.75,5.77,19.2,19.2,0,0,1,3.11,8.07,49.89,49.89,0,0,1,.33,7.74H194.47q.24,5.87,4.08,8.23a10.36,10.36,0,0,0,5.63,1.47,8.62,8.62,0,0,0,5.66-1.79,8.53,8.53,0,0,0,2.1-2.68h10.42q-.41,3.47-3.78,7.05-5.24,5.69-14.68,5.69a21.27,21.27,0,0,1-13.74-4.8q-6-4.8-6-15.62,0-10.14,5.38-15.55t14-5.41A22.18,22.18,0,0,1,212.7,334.55Zm-15.26,8.81a10.61,10.61,0,0,0-2.72,6H212.3a8.51,8.51,0,0,0-2.72-6.17,8.94,8.94,0,0,0-6.05-2.1A8.1,8.1,0,0,0,197.44,343.36Z"/><path class="cls-2" d="M249.73,332.85l.88.05v10.45q-1-.11-1.72-.14l-1.22,0q-6.16,0-8.27,4-1.18,2.26-1.18,6.95v18.65H227.94v-39h9.74v6.8a21.57,21.57,0,0,1,4.12-5.33,11.21,11.21,0,0,1,7.45-2.4Z"/><path class="cls-2" d="M267,372.78H256.8V320H267Z"/><path class="cls-2" d="M309.49,368q-4.94,6.1-15,6.1t-15-6.1a24.21,24.21,0,0,1,0-29.31q4.94-6.18,15-6.19t15,6.19a24.21,24.21,0,0,1,0,29.31Zm-8.16-5.64q2.4-3.18,2.4-9t-2.4-9a9.07,9.07,0,0,0-13.77,0q-2.42,3.16-2.42,9t2.42,9a9,9,0,0,0,13.77,0Z"/><path class="cls-2" d="M341,333.72a12.27,12.27,0,0,1,6,5.66v-5.62h10v37q0,7.55-2.54,11.38-4.37,6.59-16.75,6.59-7.48,0-12.21-2.94a10.83,10.83,0,0,1-5.23-8.77h11.1a4.59,4.59,0,0,0,1.4,2.58q1.65,1.4,5.55,1.4,5.51,0,7.37-3.69,1.22-2.36,1.22-7.95v-2.51a12.44,12.44,0,0,1-3.15,3.76,12.67,12.67,0,0,1-7.91,2.33,15,15,0,0,1-12-5.28q-4.49-5.28-4.49-14.3,0-8.7,4.33-14.62t12.26-5.92A13.42,13.42,0,0,1,341,333.72Zm3.47,28Q347,359,347,353.09q0-5.55-2.34-8.45a7.62,7.62,0,0,0-6.26-2.9,7.38,7.38,0,0,0-7.38,5,18,18,0,0,0-1.07,6.62,15.16,15.16,0,0,0,1.14,6.05,7.44,7.44,0,0,0,7.42,4.94A7.83,7.83,0,0,0,344.52,361.7Z"/><path class="cls-2" d="M131,109,62.85,147.62c-17.68,9.4-15.72,47.69,4.39,85.53a159.91,159.91,0,0,0,13.34,21.06l44.77-11L95.11,270.52c14.8,13.78,30,19.75,40.55,14.14l201-106.81c-7.17-1.13-15-4.77-23.09-10.86-13.55-10.2-26.56-26.27-36.65-45.26a165.08,165.08,0,0,1-10.67-24.64L228,106.53l33.12-29.94A97.43,97.43,0,0,1,260,66c-.52-10.11.85-18.64,3.93-25.21L193,76l.8-23.26h0A2.22,2.22,0,0,0,194,52c.7-3.62-8.13-8.37-19.73-10.61s-21.56-1.12-22.26,2.5"/><path class="cls-2" d="M356.72,138.86c-.79-15.38-6.38-33.54-15.74-51.16S319.7,55.29,307.39,46c-11-8.26-21-11-27.48-7.58l-.63.36c-6.07,3.74-9.15,13.38-8.47,26.65.79,15.38,6.38,33.54,15.74,51.16S307.84,149,320.14,158.3c10.62,8,20.33,10.84,26.83,7.9l.65-.32C354.11,162.43,357.42,152.58,356.72,138.86Zm-29.23-20.23-.17.08c-1.64.74-4.1,0-6.79-2a32.32,32.32,0,0,1-8.5-10.55,32.32,32.32,0,0,1-4-13c-.17-3.36.61-5.8,2.14-6.75l.16-.09c1.64-.87,4.18-.17,7,1.92a32.32,32.32,0,0,1,8.5,10.55,32.32,32.32,0,0,1,4,13C330,115.27,329.13,117.76,327.48,118.63Z"/></g></g></svg>